<svg xmlns="http://www.w3.org/2000/svg" width="720" height="440" viewBox="0 0 720 440" font-family="Inter, system-ui, -apple-system, Segoe UI, sans-serif">
  <defs>
    <linearGradient id="bg" x1="0" y1="0" x2="0" y2="1">
      <stop offset="0" stop-color="#0E1117"/>
      <stop offset="1" stop-color="#070809"/>
    </linearGradient>
  </defs>
  <rect width="720" height="440" fill="url(#bg)"/>

  <!-- Title -->
  <text x="32" y="48" fill="#FFFFFF" font-size="20" font-weight="700">Passive AMM LP vs. propAMM-style LP</text>
  <text x="32" y="72" fill="#8A93A0" font-size="13">Same flow. Different fee response.</text>

  <!-- LEFT CARD: Passive -->
  <rect x="32" y="100" width="316" height="300" rx="10" fill="#11151B" stroke="#3A3038" stroke-width="1.5"/>
  <text x="52" y="130" fill="#E97777" font-size="11" font-weight="700" letter-spacing="1">PASSIVE LP</text>
  <text x="52" y="156" fill="#FFFFFF" font-size="17" font-weight="700">One fee, every direction</text>

  <!-- Fee bars -->
  <text x="52" y="194" fill="#8A93A0" font-size="9" letter-spacing="1">ARB DIRECTION</text>
  <rect x="52" y="202" width="220" height="14" rx="2" fill="#E97777" opacity="0.85"/>
  <text x="280" y="213" fill="#E97777" font-size="11" font-weight="700" font-family="ui-monospace, monospace">baseFee</text>

  <text x="52" y="242" fill="#8A93A0" font-size="9" letter-spacing="1">RETAIL DIRECTION</text>
  <rect x="52" y="250" width="220" height="14" rx="2" fill="#E97777" opacity="0.85"/>
  <text x="280" y="261" fill="#E97777" font-size="11" font-weight="700" font-family="ui-monospace, monospace">baseFee</text>

  <g transform="translate(52, 298)">
    <text x="0" y="0" fill="#C7CDD4" font-size="12">→ arbs eat the spread</text>
    <text x="0" y="20" fill="#C7CDD4" font-size="12">→ retail pays the same fee</text>
  </g>

  <rect x="52" y="346" width="276" height="32" rx="6" fill="#1F1419" stroke="#E97777" stroke-width="1.2"/>
  <text x="190" y="367" fill="#E97777" font-size="12" font-weight="700" text-anchor="middle">P&amp;L: bleeds to LVR</text>

  <!-- RIGHT CARD: DynamicFeeAuctionHook -->
  <rect x="372" y="100" width="316" height="300" rx="10" fill="#0F1A17" stroke="#2EE6A8" stroke-width="1.5"/>
  <text x="392" y="130" fill="#2EE6A8" font-size="11" font-weight="700" letter-spacing="1">DYNAMICFEEAUCTIONHOOK</text>
  <text x="392" y="156" fill="#FFFFFF" font-size="17" font-weight="700">Asymmetric, by direction</text>

  <text x="392" y="194" fill="#8FBAAE" font-size="9" letter-spacing="1">ARB DIRECTION</text>
  <rect x="392" y="202" width="220" height="14" rx="2" fill="#2EE6A8" opacity="0.85"/>
  <text x="620" y="213" fill="#2EE6A8" font-size="11" font-weight="700" font-family="ui-monospace, monospace">+ capture</text>

  <text x="392" y="242" fill="#8FBAAE" font-size="9" letter-spacing="1">RETAIL DIRECTION</text>
  <rect x="392" y="250" width="68" height="14" rx="2" fill="#2EE6A8" opacity="0.85"/>
  <text x="468" y="261" fill="#2EE6A8" font-size="11" font-weight="700" font-family="ui-monospace, monospace">− attract</text>

  <g transform="translate(392, 298)">
    <text x="0" y="0" fill="#C7CDD4" font-size="12">→ toxic flow pays for itself</text>
    <text x="0" y="20" fill="#C7CDD4" font-size="12">→ retail gets a discount</text>
  </g>

  <rect x="392" y="346" width="276" height="32" rx="6" fill="#13241F" stroke="#2EE6A8" stroke-width="1.2"/>
  <text x="530" y="367" fill="#2EE6A8" font-size="12" font-weight="700" text-anchor="middle">P&amp;L: captures arb, wins retail</text>

  <!-- Footer -->
  <text x="360" y="424" fill="#6B7480" font-size="11" text-anchor="middle">Uniswap spot is the fee compass — the hook only ever raises the fee, never lowers it</text>
</svg>
